#!OML:ASF I:\Actors\actors\Patient Classification 2\Patient 1\Session 1\actor1.ASF
:FULLY-SPECIFIED
:DEGREES
384
root -0.999503 17.9806 6.05644 -4.5664 -3.3349 -4.31285
lowerback 3.48584 -1.70385 2.43449
upperback -1.5692 -2.04589 3.2864
thorax -3.53905 -1.03602 2.15865
lowerneck -6.07828 -3.49129 -0.740344
upperneck 31.849 -3.57246 -5.01188
head 11.2085 -2.34922 -2.11853
rclavicle 2.93207e-015 -2.54444e-014
rhumerus 26.1557 -7.9474 -21.7435
rradius 123.097
rwrist -83.4567
rhand 8.52085 -63.1804
rfingers 7.12502
rthumb 33.7221 450.025
lclavicle 2.93207e-015 -2.54444e-014
lhumerus 40.4246 -4.63756 25.0829
lradius 102.287
lwrist 88.8068
lhand 32.6566 -4.28647
lfingers 7.12502
lthumb 56.0782 13.0425
rfemur 0 0 0
rtibia 0
rfoot 0 0
rtoes 0
lfemur 25.0423 -5.15175 -13.0199
ltibia -19.8093
lfoot -3.95217 18.9419
ltoes -10.9293
385
root -0.996773 17.9764 6.06155 -4.64282 -3.25699 -4.30405
lowerback 3.58804 -1.72739 2.40693
upperback -1.60185 -2.07288 3.27698
thorax -3.62948 -1.04902 2.17086
lowerneck -6.02299 -3.44637 -0.558768
upperneck 32.0711 -3.40921 -5.4374
head 11.2743 -2.30505 -2.29544
rclavicle -1.71452e-014 -1.11319e-014
rhumerus 26.813 -9.3952 -21.9691
rradius 122.897
rwrist -83.5996
rhand 7.67776 -63.0856
rfingers 7.12502
rthumb 32.9206 450.103
lclavicle -1.71452e-014 -1.11319e-014
lhumerus 41.0924 -3.68736 25.7469
lradius 102.319
lwrist 89.2604
lhand 32.6477 -4.44568
lfingers 7.12502
lthumb 56.0703 12.8895
rfemur 0 0 0
rtibia 0
rfoot 0 0
rtoes 0
lfemur 25.1543 -5.17825 -13.0425
ltibia -19.8569
lfoot -3.93684 18.8726
ltoes -11.04
386
root -0.993551 17.9727 6.06739 -4.71259 -3.21416 -4.26177
lowerback 3.68649 -1.73569 2.3678
upperback -1.62189 -2.08222 3.22787
thorax -3.70601 -1.05336 2.14682
lowerneck -5.9984 -3.41081 -0.282705
upperneck 32.2384 -3.25213 -5.94036
head 11.3211 -2.26152 -2.51776
rclavicle 6.36111e-015 -2.8625e-014
rhumerus 27.5221 -10.9286 -22.3463
rradius 122.697
rwrist -83.395
rhand 6.73829 -63.0208
rfingers 7.12502
rthumb 32.0265 450.221
lclavicle 6.36111e-015 -2.8625e-014
lhumerus 41.8703 -2.71604 26.3513
lradius 102.325
lwrist 89.5761
lhand 32.7144 -4.68279
lfingers 7.12502
lthumb 56.1294 12.6062
rfemur 0 0 0
rtibia 0
rfoot 0 0
rtoes 0
lfemur 25.2695 -5.23666 -13.1223
ltibia -19.906
lfoot -3.93087 18.8478
ltoes -11.1951
387
root -0.989817 17.9696 6.07358 -4.75244 -3.20936 -4.27657
lowerback 3.7846 -1.73689 2.39043
upperback -1.6366 -2.07852 3.19713
thorax -3.77874 -1.05246 2.10624
lowerneck -6.02206 -3.35731 -0.0098462
upperneck 32.3519 -3.06866 -6.43865
head 11.3589 -2.20564 -2.73531
rclavicle 1.65488e-014 -4.29375e-014
rhumerus 28.3077 -12.5588 -22.8673
rradius 122.515
rwrist -82.8789
rhand 6.14923 -62.878
rfingers 7.12502
rthumb 31.4655 450.19
lclavicle 1.65488e-014 -4.29375e-014
lhumerus 42.6488 -1.65347 26.8924
lradius 102.363
lwrist 89.7555
lhand 32.7708 -5.04955
lfingers 7.12502
lthumb 56.1792 12.2003
rfemur 0 0 0
rtibia 0
rfoot 0 0
rtoes 0
lfemur 25.3628 -5.35631 -13.157
ltibia -19.9411
lfoot -4.02578 18.906
ltoes -11.0697
388
root -0.986888 17.9668 6.08219 -4.74696 -3.2535 -4.34246
lowerback 3.86854 -1.73205 2.4143
upperback -1.73508 -2.0625 3.2115
thorax -3.92913 -1.04516 2.11274
lowerneck -5.84954 -3.27471 0.272833
upperneck 32.4598 -2.83898 -6.96683
head 11.3577 -2.12953 -2.95603
rclavicle 2.98177e-015 -4.13472e-014
rhumerus 29.0993 -14.1276 -23.4314
rradius 122.335
rwrist -82.241
rhand 6.03635 -62.6732
rfingers 7.12502
rthumb 31.358 450.006
lclavicle 2.98177e-015 -4.13472e-014
lhumerus 43.3594 -0.635875 27.4169
lradius 102.442
lwrist 89.8574
lhand 32.6037 -5.23566
lfingers 7.12502
lthumb 56.0313 12.1298
rfemur 0 0 0
rtibia 0
rfoot 0 0
rtoes 0
lfemur 25.4229 -5.47698 -13.1351
ltibia -19.9588
lfoot -4.14691 19.024
ltoes -10.9031
389
root -0.984392 17.9631 6.09283 -4.76492 -3.32709 -4.39855
lowerback 3.96942 -1.71683 2.41799
upperback -1.88018 -2.03108 3.2248
thorax -4.13729 -1.02981 2.13032
lowerneck -5.35029 -3.10706 0.727996
upperneck 32.4235 -2.47405 -7.65744
head 11.2344 -1.98452 -3.23828
rclavicle -1.01877e-014 4.77083e-015
rhumerus 29.9175 -15.687 -24.1281
rradius 122.221
rwrist -81.5494
rhand 5.78312 -62.6097
rfingers 7.12502
rthumb 31.1166 270.011
lclavicle -1.01877e-014 4.77083e-015
lhumerus 44.0605 0.288302 27.9278
lradius 102.558
lwrist 89.9351
lhand 32.1212 -5.18194
lfingers 7.12502
lthumb 55.6032 12.5112
rfemur 0 0 0
rtibia 0
rfoot 0 0
rtoes 0
lfemur 25.5173 -5.57557 -13.1259
ltibia -19.9668
lfoot -4.24798 19.1615
ltoes -10.8356
